<svg width="20" height="20" viewBox="0 0 20 20" fill="none" xmlns="http://www.w3.org/2000/svg">
<path d="M10 10.8334C10.4602 10.8334 10.8333 10.4603 10.8333 10C10.8333 9.5398 10.4602 9.16671 10 9.16671C9.53977 9.16671 9.16667 9.5398 9.16667 10C9.16667 10.4603 9.53977 10.8334 10 10.8334Z" stroke="#98A2B3" stroke-width="1.66667" stroke-linecap="round" stroke-linejoin="round"/>
<path d="M10 5.00004C10.4602 5.00004 10.8333 4.62694 10.8333 4.16671C10.8333 3.70647 10.4602 3.33337 10 3.33337C9.53977 3.33337 9.16667 3.70647 9.16667 4.16671C9.16667 4.62694 9.53977 5.00004 10 5.00004Z" stroke="#98A2B3" stroke-width="1.66667" stroke-linecap="round" stroke-linejoin="round"/>
<path d="M10 16.6667C10.4602 16.6667 10.8333 16.2936 10.8333 15.8334C10.8333 15.3731 10.4602 15 10 15C9.53977 15 9.16667 15.3731 9.16667 15.8334C9.16667 16.2936 9.53977 16.6667 10 16.6667Z" stroke="#98A2B3" stroke-width="1.66667" stroke-linecap="round" stroke-linejoin="round"/>
</svg>
